<mxfile host="app.diagrams.net" modified="2024-05-08T04:19:33.166Z" agent="Mozilla/5.0 (X11; Linux x86_64) AppleWebKit/537.36 (KHTML, like Gecko) Chrome/124.0.0.0 Safari/537.36" etag="gskkwyG8lJiYIQQFRjkK" version="24.3.1" type="device">
  <diagram name="Page-1" id="kRg1-ay8pMj5Pi-dX9Vl">
    <mxGraphModel dx="1794" dy="1628" grid="1" gridSize="10" guides="1" tooltips="1" connect="1" arrows="1" fold="1" page="1" pageScale="1" pageWidth="850" pageHeight="1100" math="0" shadow="0">
      <root>
        <mxCell id="0" />
        <mxCell id="1" parent="0" />
        <mxCell id="TpQNtew0xltjlEM3AGvT-24" style="rounded=0;orthogonalLoop=1;jettySize=auto;html=1;entryX=0;entryY=1;entryDx=0;entryDy=0;endArrow=none;endFill=0;" parent="1" source="TpQNtew0xltjlEM3AGvT-1" target="TpQNtew0xltjlEM3AGvT-23" edge="1">
          <mxGeometry relative="1" as="geometry" />
        </mxCell>
        <mxCell id="TpQNtew0xltjlEM3AGvT-67" style="edgeStyle=orthogonalEdgeStyle;rounded=0;orthogonalLoop=1;jettySize=auto;html=1;endArrow=none;endFill=0;" parent="1" source="TpQNtew0xltjlEM3AGvT-1" target="TpQNtew0xltjlEM3AGvT-66" edge="1">
          <mxGeometry relative="1" as="geometry" />
        </mxCell>
        <mxCell id="TpQNtew0xltjlEM3AGvT-90" value="1, N" style="edgeLabel;html=1;align=center;verticalAlign=middle;resizable=0;points=[];" parent="TpQNtew0xltjlEM3AGvT-67" vertex="1" connectable="0">
          <mxGeometry x="-0.8609" y="3" relative="1" as="geometry">
            <mxPoint as="offset" />
          </mxGeometry>
        </mxCell>
        <mxCell id="30r3uodBetRimc9JXK35-7" style="rounded=0;orthogonalLoop=1;jettySize=auto;html=1;entryX=1;entryY=0.5;entryDx=0;entryDy=0;endArrow=none;endFill=0;" edge="1" parent="1" source="TpQNtew0xltjlEM3AGvT-1" target="30r3uodBetRimc9JXK35-6">
          <mxGeometry relative="1" as="geometry" />
        </mxCell>
        <mxCell id="TpQNtew0xltjlEM3AGvT-1" value="NOTIFICADO" style="rounded=0;whiteSpace=wrap;html=1;" parent="1" vertex="1">
          <mxGeometry x="130" y="190" width="120" height="60" as="geometry" />
        </mxCell>
        <mxCell id="TpQNtew0xltjlEM3AGvT-18" style="rounded=0;orthogonalLoop=1;jettySize=auto;html=1;entryX=0.01;entryY=0.367;entryDx=0;entryDy=0;endArrow=none;endFill=0;entryPerimeter=0;" parent="1" source="TpQNtew0xltjlEM3AGvT-2" target="TpQNtew0xltjlEM3AGvT-1" edge="1">
          <mxGeometry relative="1" as="geometry" />
        </mxCell>
        <mxCell id="TpQNtew0xltjlEM3AGvT-2" value="&lt;u&gt;ID&lt;/u&gt;" style="ellipse;whiteSpace=wrap;html=1;" parent="1" vertex="1">
          <mxGeometry x="-100" y="190" width="120" height="50" as="geometry" />
        </mxCell>
        <mxCell id="TpQNtew0xltjlEM3AGvT-13" style="rounded=0;orthogonalLoop=1;jettySize=auto;html=1;endArrow=none;endFill=0;" parent="1" target="TpQNtew0xltjlEM3AGvT-1" edge="1">
          <mxGeometry relative="1" as="geometry">
            <mxPoint x="52.0631491167419" y="98.94047806481012" as="sourcePoint" />
          </mxGeometry>
        </mxCell>
        <mxCell id="TpQNtew0xltjlEM3AGvT-9" style="rounded=0;orthogonalLoop=1;jettySize=auto;html=1;entryX=0;entryY=0;entryDx=0;entryDy=0;endArrow=none;endFill=0;" parent="1" source="TpQNtew0xltjlEM3AGvT-5" target="6f-TwCAPix_qyAi-z65O-1" edge="1">
          <mxGeometry relative="1" as="geometry">
            <mxPoint x="-14.24601837026944" y="55.73377280004934" as="targetPoint" />
          </mxGeometry>
        </mxCell>
        <mxCell id="TpQNtew0xltjlEM3AGvT-5" value="Hora" style="ellipse;whiteSpace=wrap;html=1;" parent="1" vertex="1">
          <mxGeometry x="-190" y="-10" width="120" height="50" as="geometry" />
        </mxCell>
        <mxCell id="TpQNtew0xltjlEM3AGvT-10" style="rounded=0;orthogonalLoop=1;jettySize=auto;html=1;endArrow=none;endFill=0;" parent="1" source="TpQNtew0xltjlEM3AGvT-6" target="6f-TwCAPix_qyAi-z65O-1" edge="1">
          <mxGeometry relative="1" as="geometry">
            <mxPoint x="10.622148834949485" y="48.45627477221433" as="targetPoint" />
          </mxGeometry>
        </mxCell>
        <mxCell id="TpQNtew0xltjlEM3AGvT-6" value="Dia" style="ellipse;whiteSpace=wrap;html=1;" parent="1" vertex="1">
          <mxGeometry x="-100" y="-70" width="120" height="50" as="geometry" />
        </mxCell>
        <mxCell id="TpQNtew0xltjlEM3AGvT-7" value="Mês" style="ellipse;whiteSpace=wrap;html=1;" parent="1" vertex="1">
          <mxGeometry x="130" y="-10" width="120" height="50" as="geometry" />
        </mxCell>
        <mxCell id="TpQNtew0xltjlEM3AGvT-11" style="rounded=0;orthogonalLoop=1;jettySize=auto;html=1;endArrow=none;endFill=0;" parent="1" source="TpQNtew0xltjlEM3AGvT-8" target="6f-TwCAPix_qyAi-z65O-1" edge="1">
          <mxGeometry relative="1" as="geometry">
            <mxPoint x="41.40512462247693" y="48.75180060403727" as="targetPoint" />
          </mxGeometry>
        </mxCell>
        <mxCell id="TpQNtew0xltjlEM3AGvT-8" value="Ano" style="ellipse;whiteSpace=wrap;html=1;" parent="1" vertex="1">
          <mxGeometry x="40" y="-70" width="120" height="50" as="geometry" />
        </mxCell>
        <mxCell id="TpQNtew0xltjlEM3AGvT-12" style="rounded=0;orthogonalLoop=1;jettySize=auto;html=1;endArrow=none;endFill=0;" parent="1" source="TpQNtew0xltjlEM3AGvT-7" target="6f-TwCAPix_qyAi-z65O-1" edge="1">
          <mxGeometry relative="1" as="geometry">
            <mxPoint x="70.31999999999994" y="57.0150000000001" as="targetPoint" />
          </mxGeometry>
        </mxCell>
        <mxCell id="TpQNtew0xltjlEM3AGvT-15" style="rounded=0;orthogonalLoop=1;jettySize=auto;html=1;endArrow=none;endFill=0;" parent="1" source="TpQNtew0xltjlEM3AGvT-14" target="6f-TwCAPix_qyAi-z65O-1" edge="1">
          <mxGeometry relative="1" as="geometry">
            <mxPoint x="-28.451755812874808" y="81.47900070459104" as="targetPoint" />
          </mxGeometry>
        </mxCell>
        <mxCell id="TpQNtew0xltjlEM3AGvT-14" value="Minuto" style="ellipse;whiteSpace=wrap;html=1;" parent="1" vertex="1">
          <mxGeometry x="-200" y="70" width="120" height="50" as="geometry" />
        </mxCell>
        <mxCell id="TpQNtew0xltjlEM3AGvT-17" style="rounded=0;orthogonalLoop=1;jettySize=auto;html=1;endArrow=none;endFill=0;entryX=1;entryY=0.5;entryDx=0;entryDy=0;" parent="1" source="TpQNtew0xltjlEM3AGvT-16" target="6f-TwCAPix_qyAi-z65O-1" edge="1">
          <mxGeometry relative="1" as="geometry">
            <mxPoint x="79.60035801185472" y="78.30911260677908" as="targetPoint" />
          </mxGeometry>
        </mxCell>
        <mxCell id="TpQNtew0xltjlEM3AGvT-16" value="Segundo" style="ellipse;whiteSpace=wrap;html=1;" parent="1" vertex="1">
          <mxGeometry x="130" y="60" width="120" height="50" as="geometry" />
        </mxCell>
        <mxCell id="TpQNtew0xltjlEM3AGvT-23" value="ID_USUÁRIO" style="ellipse;whiteSpace=wrap;html=1;align=center;dashed=1;" parent="1" vertex="1">
          <mxGeometry x="250" y="120" width="100" height="40" as="geometry" />
        </mxCell>
        <mxCell id="TpQNtew0xltjlEM3AGvT-27" value="Escuta" style="shape=rhombus;perimeter=rhombusPerimeter;whiteSpace=wrap;html=1;align=center;" parent="1" vertex="1">
          <mxGeometry x="360" y="190" width="120" height="60" as="geometry" />
        </mxCell>
        <mxCell id="TpQNtew0xltjlEM3AGvT-34" style="edgeStyle=orthogonalEdgeStyle;rounded=0;orthogonalLoop=1;jettySize=auto;html=1;entryX=1;entryY=0.5;entryDx=0;entryDy=0;endArrow=none;endFill=0;" parent="1" source="TpQNtew0xltjlEM3AGvT-29" target="TpQNtew0xltjlEM3AGvT-27" edge="1">
          <mxGeometry relative="1" as="geometry" />
        </mxCell>
        <mxCell id="TpQNtew0xltjlEM3AGvT-91" value="1, N" style="edgeLabel;html=1;align=center;verticalAlign=middle;resizable=0;points=[];" parent="TpQNtew0xltjlEM3AGvT-34" vertex="1" connectable="0">
          <mxGeometry x="-0.7714" y="-4" relative="1" as="geometry">
            <mxPoint as="offset" />
          </mxGeometry>
        </mxCell>
        <mxCell id="TpQNtew0xltjlEM3AGvT-42" style="edgeStyle=orthogonalEdgeStyle;rounded=0;orthogonalLoop=1;jettySize=auto;html=1;entryX=0.5;entryY=0;entryDx=0;entryDy=0;endArrow=none;endFill=0;" parent="1" source="TpQNtew0xltjlEM3AGvT-29" target="TpQNtew0xltjlEM3AGvT-41" edge="1">
          <mxGeometry relative="1" as="geometry" />
        </mxCell>
        <mxCell id="TpQNtew0xltjlEM3AGvT-92" value="1, N" style="edgeLabel;html=1;align=center;verticalAlign=middle;resizable=0;points=[];" parent="TpQNtew0xltjlEM3AGvT-42" vertex="1" connectable="0">
          <mxGeometry x="-0.7333" y="1" relative="1" as="geometry">
            <mxPoint as="offset" />
          </mxGeometry>
        </mxCell>
        <mxCell id="TpQNtew0xltjlEM3AGvT-29" value="NOTIFICADOR" style="rounded=0;whiteSpace=wrap;html=1;" parent="1" vertex="1">
          <mxGeometry x="620" y="190" width="120" height="60" as="geometry" />
        </mxCell>
        <mxCell id="TpQNtew0xltjlEM3AGvT-30" style="edgeStyle=orthogonalEdgeStyle;rounded=0;orthogonalLoop=1;jettySize=auto;html=1;entryX=0;entryY=0.5;entryDx=0;entryDy=0;endArrow=none;endFill=0;" parent="1" source="TpQNtew0xltjlEM3AGvT-1" target="TpQNtew0xltjlEM3AGvT-27" edge="1">
          <mxGeometry relative="1" as="geometry" />
        </mxCell>
        <mxCell id="TpQNtew0xltjlEM3AGvT-39" value="N" style="edgeLabel;html=1;align=center;verticalAlign=middle;resizable=0;points=[];" parent="TpQNtew0xltjlEM3AGvT-30" vertex="1" connectable="0">
          <mxGeometry x="-0.8486" y="1" relative="1" as="geometry">
            <mxPoint x="-4" y="-4" as="offset" />
          </mxGeometry>
        </mxCell>
        <mxCell id="TpQNtew0xltjlEM3AGvT-33" style="edgeStyle=orthogonalEdgeStyle;rounded=0;orthogonalLoop=1;jettySize=auto;html=1;endArrow=none;endFill=0;entryX=0.5;entryY=0;entryDx=0;entryDy=0;" parent="1" source="TpQNtew0xltjlEM3AGvT-32" target="TpQNtew0xltjlEM3AGvT-29" edge="1">
          <mxGeometry relative="1" as="geometry" />
        </mxCell>
        <mxCell id="TpQNtew0xltjlEM3AGvT-32" value="&lt;u&gt;ID&lt;/u&gt;" style="ellipse;whiteSpace=wrap;html=1;align=center;" parent="1" vertex="1">
          <mxGeometry x="780" y="95" width="100" height="40" as="geometry" />
        </mxCell>
        <mxCell id="TpQNtew0xltjlEM3AGvT-36" style="rounded=0;orthogonalLoop=1;jettySize=auto;html=1;endArrow=none;endFill=0;entryX=0;entryY=0;entryDx=0;entryDy=0;" parent="1" source="TpQNtew0xltjlEM3AGvT-35" target="TpQNtew0xltjlEM3AGvT-29" edge="1">
          <mxGeometry relative="1" as="geometry" />
        </mxCell>
        <mxCell id="TpQNtew0xltjlEM3AGvT-35" value="ID_NOTIFICADO" style="ellipse;whiteSpace=wrap;html=1;align=center;dashed=1;" parent="1" vertex="1">
          <mxGeometry x="540" y="40" width="160" height="50" as="geometry" />
        </mxCell>
        <mxCell id="TpQNtew0xltjlEM3AGvT-38" style="edgeStyle=orthogonalEdgeStyle;rounded=0;orthogonalLoop=1;jettySize=auto;html=1;endArrow=none;endFill=0;entryX=1;entryY=0.5;entryDx=0;entryDy=0;" parent="1" source="TpQNtew0xltjlEM3AGvT-37" target="TpQNtew0xltjlEM3AGvT-29" edge="1">
          <mxGeometry relative="1" as="geometry">
            <mxPoint x="490" y="250" as="targetPoint" />
          </mxGeometry>
        </mxCell>
        <mxCell id="TpQNtew0xltjlEM3AGvT-37" value="ID_CONDOMINIO" style="ellipse;whiteSpace=wrap;html=1;align=center;" parent="1" vertex="1">
          <mxGeometry x="820" y="195" width="160" height="50" as="geometry" />
        </mxCell>
        <mxCell id="TpQNtew0xltjlEM3AGvT-44" style="edgeStyle=orthogonalEdgeStyle;rounded=0;orthogonalLoop=1;jettySize=auto;html=1;entryX=0.5;entryY=0;entryDx=0;entryDy=0;endArrow=none;endFill=0;" parent="1" source="TpQNtew0xltjlEM3AGvT-41" target="TpQNtew0xltjlEM3AGvT-43" edge="1">
          <mxGeometry relative="1" as="geometry" />
        </mxCell>
        <mxCell id="TpQNtew0xltjlEM3AGvT-93" value="N" style="edgeLabel;html=1;align=center;verticalAlign=middle;resizable=0;points=[];" parent="TpQNtew0xltjlEM3AGvT-44" vertex="1" connectable="0">
          <mxGeometry x="0.7" y="3" relative="1" as="geometry">
            <mxPoint as="offset" />
          </mxGeometry>
        </mxCell>
        <mxCell id="TpQNtew0xltjlEM3AGvT-41" value="Cria" style="shape=rhombus;perimeter=rhombusPerimeter;whiteSpace=wrap;html=1;align=center;" parent="1" vertex="1">
          <mxGeometry x="620" y="340" width="120" height="60" as="geometry" />
        </mxCell>
        <mxCell id="TpQNtew0xltjlEM3AGvT-46" style="edgeStyle=orthogonalEdgeStyle;rounded=0;orthogonalLoop=1;jettySize=auto;html=1;entryX=0;entryY=0.5;entryDx=0;entryDy=0;endArrow=none;endFill=0;" parent="1" source="TpQNtew0xltjlEM3AGvT-43" target="TpQNtew0xltjlEM3AGvT-45" edge="1">
          <mxGeometry relative="1" as="geometry" />
        </mxCell>
        <mxCell id="TpQNtew0xltjlEM3AGvT-48" style="rounded=0;orthogonalLoop=1;jettySize=auto;html=1;entryX=0.5;entryY=0;entryDx=0;entryDy=0;endArrow=none;endFill=0;" parent="1" source="TpQNtew0xltjlEM3AGvT-43" target="TpQNtew0xltjlEM3AGvT-47" edge="1">
          <mxGeometry relative="1" as="geometry" />
        </mxCell>
        <mxCell id="TpQNtew0xltjlEM3AGvT-50" style="rounded=0;orthogonalLoop=1;jettySize=auto;html=1;entryX=0.5;entryY=0;entryDx=0;entryDy=0;endArrow=none;endFill=0;" parent="1" source="TpQNtew0xltjlEM3AGvT-43" target="TpQNtew0xltjlEM3AGvT-49" edge="1">
          <mxGeometry relative="1" as="geometry" />
        </mxCell>
        <mxCell id="TpQNtew0xltjlEM3AGvT-43" value="NOTIFICAÇÃO" style="rounded=0;whiteSpace=wrap;html=1;" parent="1" vertex="1">
          <mxGeometry x="620" y="480" width="120" height="60" as="geometry" />
        </mxCell>
        <mxCell id="TpQNtew0xltjlEM3AGvT-45" value="&lt;u&gt;ID_NOTIFICAÇÃO&lt;/u&gt;" style="ellipse;whiteSpace=wrap;html=1;align=center;" parent="1" vertex="1">
          <mxGeometry x="820" y="485" width="160" height="50" as="geometry" />
        </mxCell>
        <mxCell id="TpQNtew0xltjlEM3AGvT-47" value="&lt;u&gt;TÍTULO&lt;/u&gt;" style="ellipse;whiteSpace=wrap;html=1;align=center;" parent="1" vertex="1">
          <mxGeometry x="740" y="600" width="160" height="50" as="geometry" />
        </mxCell>
        <mxCell id="TpQNtew0xltjlEM3AGvT-49" value="MENSAGEM" style="ellipse;whiteSpace=wrap;html=1;align=center;" parent="1" vertex="1">
          <mxGeometry x="560" y="630" width="160" height="50" as="geometry" />
        </mxCell>
        <mxCell id="TpQNtew0xltjlEM3AGvT-65" style="rounded=0;orthogonalLoop=1;jettySize=auto;html=1;exitX=0;exitY=0.5;exitDx=0;exitDy=0;endArrow=none;endFill=0;" parent="1" target="TpQNtew0xltjlEM3AGvT-43" edge="1">
          <mxGeometry relative="1" as="geometry">
            <mxPoint x="920" y="435" as="sourcePoint" />
          </mxGeometry>
        </mxCell>
        <mxCell id="TpQNtew0xltjlEM3AGvT-52" style="rounded=0;orthogonalLoop=1;jettySize=auto;html=1;entryX=0.082;entryY=0.18;entryDx=0;entryDy=0;endArrow=none;endFill=0;entryPerimeter=0;" parent="1" source="TpQNtew0xltjlEM3AGvT-53" target="6f-TwCAPix_qyAi-z65O-2" edge="1">
          <mxGeometry relative="1" as="geometry">
            <mxPoint x="935.7539816297303" y="415.73377280004934" as="targetPoint" />
          </mxGeometry>
        </mxCell>
        <mxCell id="TpQNtew0xltjlEM3AGvT-53" value="Hora" style="ellipse;whiteSpace=wrap;html=1;" parent="1" vertex="1">
          <mxGeometry x="760" y="350" width="120" height="50" as="geometry" />
        </mxCell>
        <mxCell id="TpQNtew0xltjlEM3AGvT-54" style="rounded=0;orthogonalLoop=1;jettySize=auto;html=1;endArrow=none;endFill=0;" parent="1" source="TpQNtew0xltjlEM3AGvT-55" target="6f-TwCAPix_qyAi-z65O-2" edge="1">
          <mxGeometry relative="1" as="geometry">
            <mxPoint x="960.622148834932" y="408.45627477218204" as="targetPoint" />
          </mxGeometry>
        </mxCell>
        <mxCell id="TpQNtew0xltjlEM3AGvT-55" value="Dia" style="ellipse;whiteSpace=wrap;html=1;" parent="1" vertex="1">
          <mxGeometry x="850" y="290" width="120" height="50" as="geometry" />
        </mxCell>
        <mxCell id="TpQNtew0xltjlEM3AGvT-56" value="Mês" style="ellipse;whiteSpace=wrap;html=1;" parent="1" vertex="1">
          <mxGeometry x="1060" y="350" width="120" height="50" as="geometry" />
        </mxCell>
        <mxCell id="TpQNtew0xltjlEM3AGvT-57" style="rounded=0;orthogonalLoop=1;jettySize=auto;html=1;endArrow=none;endFill=0;entryX=0.691;entryY=0.06;entryDx=0;entryDy=0;entryPerimeter=0;" parent="1" source="TpQNtew0xltjlEM3AGvT-58" target="6f-TwCAPix_qyAi-z65O-2" edge="1">
          <mxGeometry relative="1" as="geometry">
            <mxPoint x="1000" y="420" as="targetPoint" />
          </mxGeometry>
        </mxCell>
        <mxCell id="TpQNtew0xltjlEM3AGvT-58" value="Ano" style="ellipse;whiteSpace=wrap;html=1;" parent="1" vertex="1">
          <mxGeometry x="990" y="290" width="120" height="50" as="geometry" />
        </mxCell>
        <mxCell id="TpQNtew0xltjlEM3AGvT-59" style="rounded=0;orthogonalLoop=1;jettySize=auto;html=1;endArrow=none;endFill=0;entryX=0.973;entryY=0.3;entryDx=0;entryDy=0;entryPerimeter=0;" parent="1" source="TpQNtew0xltjlEM3AGvT-56" target="6f-TwCAPix_qyAi-z65O-2" edge="1">
          <mxGeometry relative="1" as="geometry">
            <mxPoint x="1020" y="420" as="targetPoint" />
          </mxGeometry>
        </mxCell>
        <mxCell id="TpQNtew0xltjlEM3AGvT-60" style="rounded=0;orthogonalLoop=1;jettySize=auto;html=1;endArrow=none;endFill=0;entryX=0.973;entryY=0.78;entryDx=0;entryDy=0;entryPerimeter=0;" parent="1" source="TpQNtew0xltjlEM3AGvT-61" target="6f-TwCAPix_qyAi-z65O-2" edge="1">
          <mxGeometry relative="1" as="geometry">
            <mxPoint x="1028.019594001325" y="442.31304744845875" as="targetPoint" />
          </mxGeometry>
        </mxCell>
        <mxCell id="TpQNtew0xltjlEM3AGvT-61" value="Minuto" style="ellipse;whiteSpace=wrap;html=1;" parent="1" vertex="1">
          <mxGeometry x="1060" y="430" width="120" height="50" as="geometry" />
        </mxCell>
        <mxCell id="TpQNtew0xltjlEM3AGvT-62" style="rounded=0;orthogonalLoop=1;jettySize=auto;html=1;endArrow=none;endFill=0;" parent="1" source="TpQNtew0xltjlEM3AGvT-63" target="6f-TwCAPix_qyAi-z65O-2" edge="1">
          <mxGeometry relative="1" as="geometry">
            <mxPoint x="1004.1499417001751" y="458.31995336014006" as="targetPoint" />
          </mxGeometry>
        </mxCell>
        <mxCell id="TpQNtew0xltjlEM3AGvT-63" value="Segundo" style="ellipse;whiteSpace=wrap;html=1;" parent="1" vertex="1">
          <mxGeometry x="1040" y="510" width="120" height="50" as="geometry" />
        </mxCell>
        <mxCell id="TpQNtew0xltjlEM3AGvT-68" style="edgeStyle=orthogonalEdgeStyle;rounded=0;orthogonalLoop=1;jettySize=auto;html=1;entryX=0;entryY=0.5;entryDx=0;entryDy=0;endArrow=none;endFill=0;" parent="1" source="TpQNtew0xltjlEM3AGvT-66" target="TpQNtew0xltjlEM3AGvT-43" edge="1">
          <mxGeometry relative="1" as="geometry" />
        </mxCell>
        <mxCell id="TpQNtew0xltjlEM3AGvT-89" value="N" style="edgeLabel;html=1;align=center;verticalAlign=middle;resizable=0;points=[];" parent="TpQNtew0xltjlEM3AGvT-68" vertex="1" connectable="0">
          <mxGeometry x="0.8903" y="2" relative="1" as="geometry">
            <mxPoint as="offset" />
          </mxGeometry>
        </mxCell>
        <mxCell id="TpQNtew0xltjlEM3AGvT-66" value="Recebe" style="shape=rhombus;perimeter=rhombusPerimeter;whiteSpace=wrap;html=1;align=center;" parent="1" vertex="1">
          <mxGeometry x="130" y="480" width="120" height="60" as="geometry" />
        </mxCell>
        <mxCell id="TpQNtew0xltjlEM3AGvT-72" style="edgeStyle=orthogonalEdgeStyle;rounded=0;orthogonalLoop=1;jettySize=auto;html=1;endArrow=none;endFill=0;" parent="1" source="TpQNtew0xltjlEM3AGvT-69" target="TpQNtew0xltjlEM3AGvT-66" edge="1">
          <mxGeometry relative="1" as="geometry" />
        </mxCell>
        <mxCell id="TpQNtew0xltjlEM3AGvT-69" value="ID_RECEBIMENTO" style="ellipse;whiteSpace=wrap;html=1;align=center;fontStyle=4;" parent="1" vertex="1">
          <mxGeometry x="-60" y="492.5" width="130" height="37.5" as="geometry" />
        </mxCell>
        <mxCell id="TpQNtew0xltjlEM3AGvT-71" style="rounded=0;orthogonalLoop=1;jettySize=auto;html=1;endArrow=none;endFill=0;" parent="1" source="TpQNtew0xltjlEM3AGvT-70" target="TpQNtew0xltjlEM3AGvT-66" edge="1">
          <mxGeometry relative="1" as="geometry" />
        </mxCell>
        <mxCell id="TpQNtew0xltjlEM3AGvT-70" value="LIDO" style="ellipse;whiteSpace=wrap;html=1;align=center;" parent="1" vertex="1">
          <mxGeometry x="-20" y="400" width="100" height="40" as="geometry" />
        </mxCell>
        <mxCell id="6f-TwCAPix_qyAi-z65O-1" value="ASSINADO_EM" style="ellipse;whiteSpace=wrap;html=1;align=center;" parent="1" vertex="1">
          <mxGeometry x="-25" y="52.5" width="110" height="45" as="geometry" />
        </mxCell>
        <mxCell id="6f-TwCAPix_qyAi-z65O-2" value="CRIADO_EM" style="ellipse;whiteSpace=wrap;html=1;align=center;" parent="1" vertex="1">
          <mxGeometry x="920" y="400" width="110" height="50" as="geometry" />
        </mxCell>
        <mxCell id="6f-TwCAPix_qyAi-z65O-3" value="SEGMENTO" style="ellipse;whiteSpace=wrap;html=1;" parent="1" vertex="1">
          <mxGeometry x="10" y="320" width="120" height="50" as="geometry" />
        </mxCell>
        <mxCell id="30r3uodBetRimc9JXK35-5" style="rounded=0;orthogonalLoop=1;jettySize=auto;html=1;entryX=0.104;entryY=0.975;entryDx=0;entryDy=0;entryPerimeter=0;endArrow=none;endFill=0;" edge="1" parent="1" source="6f-TwCAPix_qyAi-z65O-3" target="TpQNtew0xltjlEM3AGvT-1">
          <mxGeometry relative="1" as="geometry" />
        </mxCell>
        <mxCell id="30r3uodBetRimc9JXK35-6" value="Dispositivo" style="ellipse;shape=doubleEllipse;margin=3;whiteSpace=wrap;html=1;align=center;" vertex="1" parent="1">
          <mxGeometry x="-120" y="260" width="130" height="60" as="geometry" />
        </mxCell>
      </root>
    </mxGraphModel>
  </diagram>
</mxfile>
